<svg width="5472" height="3648" viewBox="0 0 5472 3648" fill="none" xmlns="http://www.w3.org/2000/svg">
<path d="M2395.05 2437.51C2396.49 2430.2 2400.32 2423.5 2405.29 2419.59C2409.86 2415.99 2410.73 2415.92 2450.8 2415.92H2491.64L2496.62 2421.03C2501.99 2426.54 2503.94 2430.03 2505.73 2437.33L2506.87 2441.99H2450.52H2394.16L2395.05 2437.51ZM2916.69 2438.65C2916.69 2433.56 2920.19 2426.74 2925.73 2421.05L2930.72 2415.93H2971.57C3011.78 2415.93 3012.49 2415.98 3017.13 2419.64C3022.04 2423.52 3028.09 2434.24 3028.13 2439.15C3028.15 2441.82 3024.58 2442 2972.42 2442C2917.17 2441.99 2916.69 2441.97 2916.69 2438.65ZM2422.09 2409.03C2422.1 2407 2423.66 2308.9 2425.57 2191.05C2427.47 2073.19 2429.03 1965.58 2429.03 1951.91L2429.05 1927.06H2434.62H2440.19V1897.73V1868.4H2435.1H2430L2430.92 1843.7C2431.42 1830.11 2431.83 1815.08 2431.83 1810.29V1801.59H2460.61H2489.39L2488.48 1824.81C2487.99 1837.58 2487.57 1852.56 2487.57 1858.11C2487.56 1867.89 2487.45 1868.2 2483.73 1868.7L2479.9 1869.22V1897.74C2479.9 1926.07 2479.92 1926.25 2483.03 1926.78C2486.16 1927.3 2486.17 1927.39 2486.05 1956.92C2485.99 1973.22 2484.27 2082.24 2482.23 2199.2L2478.5 2411.85L2450.29 2412.29L2422.08 2412.73L2422.09 2409.03ZM2943.15 2388.63C2943.14 2375.4 2941.58 2268.16 2939.67 2150.31C2937.77 2032.45 2936.21 1934.06 2936.21 1931.66C2936.2 1928.37 2936.96 1927.16 2939.33 1926.77C2942.45 1926.25 2942.46 1926.06 2942.46 1897.73V1869.21L2938.63 1868.7L2934.8 1868.18V1834.88V1801.59H2962.67H2990.53L2990.54 1811.77C2990.54 1817.37 2990.95 1832.35 2991.45 1845.06L2992.35 1868.17L2986.92 1868.69L2981.48 1869.21V1897.73V1926.25L2987.09 1926.73L2992.7 1927.21L2996.56 2158.94C2998.68 2286.39 3000.38 2395.61 3000.35 2401.66L3000.29 2412.66H2971.73H2943.17L2943.15 2388.63ZM2293.89 1897.74V1871.66H2366.34H2438.8V1897.74V1923.81H2366.35H2293.89V1897.74ZM2481.99 1897.74V1871.66H2711.18H2940.38V1897.74V1923.81H2711.18H2481.99V1897.74ZM2983.57 1897.74V1871.66H3056.02H3128.47V1897.74V1923.81H3056.02H2983.57V1897.74H2983.57ZM2403.96 1863.51C2403.96 1857.89 2404.38 1857.81 2417.88 1860.75C2424.53 1862.2 2427.04 1863.47 2427.39 1865.56C2427.8 1868.09 2426.52 1868.4 2415.91 1868.4H2403.97V1863.51H2403.96ZM2490.35 1865.38C2490.35 1862.91 2492.11 1862.02 2500.02 1860.49C2513.82 1857.83 2514.04 1857.88 2514.04 1863.51V1868.4H2502.19C2491.59 1868.4 2490.35 1868.09 2490.35 1865.38ZM2666.07 1833.23V1801.59H2710.48H2753.93V1833.23V1868.4H2710.48H2666.07V1833.23ZM2908.33 1863.51C2908.33 1857.88 2908.55 1857.83 2922.35 1860.49C2930.26 1862.02 2932.02 1862.91 2932.02 1865.38C2932.02 1868.09 2930.78 1868.4 2920.17 1868.4H2908.33V1863.51ZM2994.97 1865.63C2995.3 1863.63 2997.94 1862.3 3004.47 1860.85C3018.02 1857.83 3018.4 1857.9 3018.4 1863.51V1868.4H3006.46C2995.97 1868.4 2994.57 1868.07 2994.97 1865.63ZM2276.49 1796.3C2275.63 1793.37 2270.21 1767.83 2270.21 1766.7C2270.21 1766.17 2468.87 1765.75 2711.68 1765.75H3153.14L3149.34 1781.63L3145.54 1797.52L2711.32 1797.93C2364.64 1798.26 2276.97 1797.93 2276.49 1796.3ZM2242.46 1755.8C2241.52 1752.12 2240.42 1748.09 2240 1746.84C2239.37 1744.89 2307.9 1744.56 2711.13 1744.56H3183L3182.04 1748.23C3181.51 1750.24 3180.25 1754.28 3179.24 1757.19L3177.38 1762.49H2710.78H2244.18L2242.46 1755.8ZM2251.84 1727.93L2246.82 1706.4L2711.25 1731.52C2972.91 1731.52 3171.92 1703.62 3171.92 1704C3171.92 1704.39 3167.65 1726.83 3166.9 1729.13L3163.86 1741.3H2711.35H2256.86L2251.84 1727.93Z" fill="#333333"/>
</svg>
